<?xml version="1.0" standalone="no"?>
<!DOCTYPE svg PUBLIC "-//W3C//DTD SVG 20010904//EN"
 "http://www.w3.org/TR/2001/REC-SVG-20010904/DTD/svg10.dtd">
<svg version="1.0" xmlns="http://www.w3.org/2000/svg"
 width="200.000000pt" height="200.000000pt" viewBox="0 0 200.000000 200.000000"
 preserveAspectRatio="xMidYMid meet">

<g transform="translate(0.000000,200.000000) scale(0.100000,-0.100000)"
fill="#000000" stroke="none">
<path d="M928 1604 l-3 -126 -192 -111 -193 -112 0 -327 c0 -181 3 -328 8
-327 4 0 129 71 277 157 241 140 270 160 273 185 3 23 6 26 23 17 19 -10 19
-4 19 319 0 316 -1 331 -19 341 -28 14 -29 13 -33 -22 -5 -54 -28 -47 -28 10
0 43 -3 50 -25 60 -14 7 -28 12 -30 12 -3 0 -5 -36 -5 -79 0 -44 -4 -83 -10
-86 -6 -4 -10 28 -10 88 0 90 -1 96 -25 111 l-24 16 -3 -126z"/>
<path d="M1170 1262 c0 -317 1 -332 19 -342 11 -5 22 -10 25 -10 4 0 5 147 4
326 -3 326 -3 327 -25 342 l-23 14 0 -330z"/>
<path d="M1240 1215 l0 -324 30 -16 30 -16 0 329 0 329 -25 11 c-14 7 -28 12
-30 12 -3 0 -5 -146 -5 -325z"/>
<path d="M1327 1177 c1 -177 5 -327 7 -333 3 -7 14 -18 25 -24 21 -11 21 -11
21 319 l0 330 -27 15 -28 14 2 -321z"/>
<path d="M1409 1149 c-1 -167 0 -315 1 -329 1 -24 24 -50 42 -50 5 0 7 147 6
326 -3 326 -3 327 -25 342 l-23 14 -1 -303z"/>
<path d="M201 573 c-12 -8 -21 -23 -21 -33 0 -10 -6 -21 -12 -24 -10 -5 -10
-7 0 -12 7 -3 12 -26 12 -60 0 -47 2 -54 20 -54 18 0 20 7 20 55 0 42 3 55 15
55 8 0 15 5 15 10 0 6 -7 10 -15 10 -22 0 -18 27 5 33 11 3 20 10 20 15 0 17
-38 20 -59 5z"/>
<path d="M1170 481 c0 -79 3 -100 15 -105 13 -4 15 10 15 93 0 79 -3 100 -15
105 -13 4 -15 -10 -15 -93z"/>
<path d="M1229 533 c-2 -56 3 -108 12 -125 12 -23 69 -25 69 -3 0 8 -9 15 -20
15 -17 0 -20 7 -20 40 0 33 3 40 20 40 11 0 20 5 20 10 0 6 -9 10 -20 10 -13
0 -20 7 -20 20 0 13 -7 20 -20 20 -15 0 -20 -7 -21 -27z"/>
<path d="M275 514 c-9 -9 -14 -23 -11 -31 3 -8 6 -16 6 -19 0 -2 17 -11 37
-19 27 -12 34 -18 25 -27 -9 -9 -18 -9 -36 0 -26 12 -43 1 -31 -18 8 -12 75
-13 93 -1 24 15 10 55 -25 70 -41 18 -43 35 -3 29 34 -5 51 9 29 23 -23 14
-66 10 -84 -7z"/>
<path d="M419 511 c-30 -24 -32 -87 -4 -107 33 -25 118 -13 101 14 -4 6 -21 8
-41 5 -30 -5 -35 -3 -41 21 -9 38 11 58 52 50 38 -7 47 9 15 26 -29 15 -56 12
-82 -9z"/>
<path d="M560 510 c-26 -26 -26 -81 -2 -103 22 -20 81 -22 105 -4 9 6 20 26
23 44 13 65 -78 111 -126 63z m80 -25 c7 -8 10 -25 6 -40 -8 -31 -50 -35 -66
-6 -13 25 -13 27 6 45 19 20 38 20 54 1z"/>
<path d="M710 460 c0 -63 2 -70 19 -70 17 0 20 8 23 48 3 43 5 47 28 47 23 0
25 -4 28 -47 3 -40 6 -48 23 -48 16 0 19 7 19 54 0 36 -5 60 -16 70 -18 19
-55 21 -72 4 -9 -9 -12 -9 -12 0 0 7 -9 12 -20 12 -18 0 -20 -7 -20 -70z"/>
<path d="M896 517 c-29 -21 -17 -60 22 -71 17 -5 32 -13 32 -18 0 -15 -27 -20
-48 -9 -15 8 -21 7 -25 -3 -8 -21 2 -26 48 -26 74 0 87 58 20 80 -46 15 -46
34 0 27 25 -4 35 -2 35 8 0 25 -55 34 -84 12z"/>
<path d="M1002 486 c-1 -25 2 -56 8 -70 9 -24 14 -26 70 -24 l60 2 0 68 c0 54
-3 68 -15 68 -11 0 -15 -11 -15 -36 0 -45 -15 -74 -39 -74 -23 0 -31 19 -31
71 0 30 -4 39 -17 39 -14 0 -19 -10 -21 -44z"/>
<path d="M1360 523 c-43 -15 -55 -87 -20 -118 29 -26 89 -23 112 5 49 60 -17
140 -92 113z m58 -35 c32 -32 -3 -88 -41 -67 -30 17 -16 79 18 79 6 0 16 -5
23 -12z"/>
<path d="M1487 523 c-9 -8 -9 -96 -1 -117 12 -32 33 -17 36 27 2 32 8 44 26
52 12 5 22 18 22 27 0 21 -11 23 -29 6 -11 -10 -14 -10 -18 0 -5 13 -25 16
-36 5z"/>
<path d="M1602 513 c-30 -26 -33 -81 -6 -107 17 -18 89 -22 99 -6 11 18 -5 31
-25 20 -22 -12 -50 -3 -50 16 0 10 14 14 51 14 48 0 50 1 43 23 -10 35 -35 57
-64 57 -15 0 -37 -8 -48 -17z m76 -30 c2 -9 -8 -13 -33 -13 -33 0 -36 2 -25
15 15 18 51 16 58 -2z"/>
<path d="M1746 517 c-26 -19 -16 -50 21 -67 34 -16 44 -40 17 -40 -8 0 -24 4
-34 10 -13 7 -19 6 -23 -4 -7 -17 13 -26 57 -26 63 0 78 52 21 76 -43 18 -47
39 -6 31 20 -4 31 -2 34 8 10 26 -56 35 -87 12z"/>
</g>
</svg>
